<svg xmlns="http://www.w3.org/2000/svg" width="112.6104" height="112.6104" viewBox="0 0 112.6104 112.6104"><defs><style>.a{fill:#efbe7d;}</style></defs><title>code</title><path class="a" d="M3.5,29.6528a3.5,3.5,0,0,1-3.5-3.5V20.5A20.5233,20.5233,0,0,1,20.5,0H32.4707a3.5,3.5,0,0,1,0,7H20.5A13.5155,13.5155,0,0,0,7,20.5v5.6528A3.5,3.5,0,0,1,3.5,29.6528Z"/><path class="a" d="M32.4707,112.61H20.5A20.5233,20.5233,0,0,1,0,92.11v-5.64a3.5,3.5,0,0,1,7,0v5.64a13.5151,13.5151,0,0,0,13.5,13.5H32.4707a3.5,3.5,0,0,1,0,7Z"/><path class="a" d="M92.11,112.61h-11.64a3.5,3.5,0,0,1,0-7H92.11a13.5148,13.5148,0,0,0,13.5-13.5V86.7881a3.5,3.5,0,0,1,7,0V92.11A20.5233,20.5233,0,0,1,92.11,112.61Z"/><path class="a" d="M109.11,29.6528a3.5,3.5,0,0,1-3.5-3.5V20.5A13.5151,13.5151,0,0,0,92.11,7h-11.64a3.5,3.5,0,0,1,0-7H92.11a20.5233,20.5233,0,0,1,20.5,20.5v5.6528A3.5,3.5,0,0,1,109.11,29.6528Z"/><path class="a" d="M79.8037,22.9707H33.1372a13.5155,13.5155,0,0,0-13.5,13.5v40a13.5151,13.5151,0,0,0,13.5,13.5H79.8037a13.5148,13.5148,0,0,0,13.5-13.5v-40A13.5151,13.5151,0,0,0,79.8037,22.9707Zm-46.6665,7H79.8037a6.5038,6.5038,0,0,1,6.4916,6.3335h-59.65A6.5038,6.5038,0,0,1,33.1372,29.9707Zm46.6665,53H33.1372a6.5075,6.5075,0,0,1-6.5-6.5V43.3042H86.3037V76.4707A6.5075,6.5075,0,0,1,79.8037,82.9707Z"/><path class="a" d="M49.4111,77.7578a3.4907,3.4907,0,0,1-2.53-1.081l-10-10.4541a3.5,3.5,0,0,1,0-4.8389l10-10.4526A3.5,3.5,0,1,1,51.94,55.77l-7.6855,8.0337L51.94,71.8389a3.5,3.5,0,0,1-2.5288,5.9189Z"/><path class="a" d="M63.5293,77.7578a3.5,3.5,0,0,1-2.5283-5.9189l7.6855-8.0352L61.001,55.77A3.5,3.5,0,1,1,66.06,50.9312l10,10.4526a3.5013,3.5013,0,0,1,0,4.8389l-10,10.4541A3.4916,3.4916,0,0,1,63.5293,77.7578Z"/></svg>