<svg xmlns="http://www.w3.org/2000/svg" width="112.6104" height="112.6104" viewBox="0 0 112.6104 112.6104"><defs><style>.a{fill:#efbe7d;}</style></defs><title>id</title><path class="a" d="M56.4482,26.4707a28.4693,28.4693,0,0,0-28.42,28.42c0,17.0522,10.1026,30.3138,10.1026,30.3138a3.159,3.159,0,1,0,5.0574-3.7869h0s-8.8443-12.0009-8.8443-26.5269a22.1048,22.1048,0,1,1,44.21,0,3.1579,3.1579,0,0,1-6.3157,0,3.1523,3.1523,0,0,0-.0185-.3516,15.7817,15.7817,0,0,0-31.56.3516c0,17.4733,13.8957,27.7913,13.8957,27.7913a3.1591,3.1591,0,0,0,3.7869-5.0575h0S46.9748,68.996,46.9748,54.8911a9.4735,9.4735,0,1,1,18.9469,0,3.1558,3.1558,0,0,0,.0678.6846A9.427,9.427,0,0,0,84.8007,55.57a3.4381,3.4381,0,0,0,.0494-1.0361A28.46,28.46,0,0,0,56.4482,26.4707ZM56.3989,51.69a3.1581,3.1581,0,0,0-3.1085,3.201c0,4.21,1.8047,10.0972,6.26,15.4437s11.81,9.8188,22.16,9.8188A3.1581,3.1581,0,1,0,81.8,73.838q-.0447-.0006-.0893,0c-8.5963,0-13.8734-3.4222-17.3125-7.5492S59.606,56.9963,59.606,54.8911A3.1581,3.1581,0,0,0,56.4914,51.69C56.4606,51.69,56.43,51.69,56.3989,51.69Z"/><path class="a" d="M3.5,29.6528a3.5,3.5,0,0,1-3.5-3.5V20.5A20.5233,20.5233,0,0,1,20.5,0H32.4707a3.5,3.5,0,0,1,0,7H20.5A13.5155,13.5155,0,0,0,7,20.5v5.6528A3.5,3.5,0,0,1,3.5,29.6528Z"/><path class="a" d="M32.4707,112.61H20.5A20.5233,20.5233,0,0,1,0,92.11v-5.64a3.5,3.5,0,0,1,7,0v5.64a13.5151,13.5151,0,0,0,13.5,13.5H32.4707a3.5,3.5,0,0,1,0,7Z"/><path class="a" d="M92.11,112.61h-11.64a3.5,3.5,0,0,1,0-7H92.11a13.5148,13.5148,0,0,0,13.5-13.5V86.7881a3.5,3.5,0,0,1,7,0V92.11A20.5233,20.5233,0,0,1,92.11,112.61Z"/><path class="a" d="M109.11,29.6528a3.5,3.5,0,0,1-3.5-3.5V20.5A13.5151,13.5151,0,0,0,92.11,7h-11.64a3.5,3.5,0,0,1,0-7H92.11a20.5233,20.5233,0,0,1,20.5,20.5v5.6528A3.5,3.5,0,0,1,109.11,29.6528Z"/></svg>