<svg xmlns="http://www.w3.org/2000/svg" width="120" height="120" viewBox="0 0 120 120"><defs><style>.a{fill:#dde5ed;}</style></defs><title>scroll-down</title><path class="a" d="M60,1A59,59,0,1,1,1,60,59.0668,59.0668,0,0,1,60,1m0-1a60,60,0,1,0,60,60A60,60,0,0,0,60,0Zm0,23A37,37,0,1,1,23,60,37.0419,37.0419,0,0,1,60,23m0-1A38,38,0,1,0,98,60,38,38,0,0,0,60,22Zm13.874-3.3813a4.0078,4.0078,0,0,1-1.5176-.8721,2.7281,2.7281,0,0,1-.79-1.313,2.8055,2.8055,0,0,1,.0938-1.6128l.1064-.3188,1.4805.4926-.1065.3189a1.37,1.37,0,0,0,.086,1.2241,1.9721,1.9721,0,0,0,1.0869.76,1.9209,1.9209,0,0,0,1.2588.0771,1.0172,1.0172,0,0,0,.6425-.6587.8.8,0,0,0-.01-.5976,1.4368,1.4368,0,0,0-.4346-.5176,7.3588,7.3588,0,0,0-.79-.5347l-.2422-.1445a6.9768,6.9768,0,0,1-1.2529-.9287A2.3305,2.3305,0,0,1,72.83,12.959a2.1657,2.1657,0,0,1,.081-1.2881,2.3079,2.3079,0,0,1,.7627-1.1313,2.346,2.346,0,0,1,1.2442-.4712,3.8581,3.8581,0,0,1,1.5791.2158,3.9731,3.9731,0,0,1,1.4228.7964,2.4811,2.4811,0,0,1,.76,1.2138,2.7,2.7,0,0,1-.0977,1.5674l-.1142.3413-1.48-.4927.1143-.3413a1.4359,1.4359,0,0,0,.0673-.7934,1.0788,1.0788,0,0,0-.37-.5781,2.2438,2.2438,0,0,0-.7422-.3926,1.7012,1.7012,0,0,0-1.0927-.0791.89.89,0,0,0-.5576.5923.8566.8566,0,0,0-.0127.5517,1.1918,1.1918,0,0,0,.3476.4951,4.3,4.3,0,0,0,.7061.5005l.2431.1446a7.7976,7.7976,0,0,1,1.33.9609,2.61,2.61,0,0,1,.7344,1.08,2.0285,2.0285,0,0,1-.0449,1.313,2.3648,2.3648,0,0,1-.7959,1.1577,2.608,2.608,0,0,1-1.336.5166A3.9948,3.9948,0,0,1,73.874,18.6187Zm9.8653,4.7661a3.4293,3.4293,0,0,1-1.6045-2.0718,3.277,3.277,0,0,1,.584-2.5864l1.0937-1.6939A3.2794,3.2794,0,0,1,85.93,15.4355a3.4322,3.4322,0,0,1,2.5478.61A3.24,3.24,0,0,1,90.03,18.0547a3.1361,3.1361,0,0,1-.5489,2.41l-.039.06-1.3106-.8462.0655-.1006a1.8082,1.8082,0,0,0,.3154-1.2529,1.581,1.581,0,0,0-.8027-1.09,1.7139,1.7139,0,0,0-1.3887-.2828,1.9789,1.9789,0,0,0-1.165.919l-1.12,1.7344a1.9851,1.9851,0,0,0-.3545,1.4345,1.7074,1.7074,0,0,0,.8252,1.1548,1.5733,1.5733,0,0,0,1.3282.2783,1.812,1.812,0,0,0,1.0078-.7988l.1172-.1811,1.3105.8461-.0908.1412a3.1387,3.1387,0,0,1-1.9707,1.4917A3.2385,3.2385,0,0,1,83.7393,23.3848Zm6.4746,4.7622,6.1836-5.6846,2.4687,2.6855a3.2206,3.2206,0,0,1,.7315,1.2027,2.0673,2.0673,0,0,1-.6123,2.2417l-.1065.0976a1.9558,1.9558,0,0,1-1.1445.5635,2.1183,2.1183,0,0,1-1.1045-.1909l-.1592.146a.9982.9982,0,0,1,.2607.771,1.2,1.2,0,0,1-.4179.7427l-2.0225,1.86-1.0722-1.1665L95.0742,29.71a.708.708,0,0,0,.2422-.4272.61.61,0,0,0-.2041-.4883l-1.4941-1.626L91.2861,29.313Zm4.4638-1.9522L95.9609,27.59a1.2221,1.2221,0,0,0,.8223.4424,1.0725,1.0725,0,0,0,.8115-.3139l.0889-.0816a1.0839,1.0839,0,0,0,.3848-.7778,1.2117,1.2117,0,0,0-.376-.8609L96.4092,24.603Zm4.001,13.5923a3.5511,3.5511,0,0,1-.3984-2.6357,3.2276,3.2276,0,0,1,1.7715-1.9844l1.7851-.9356a3.2339,3.2339,0,0,1,2.6406-.3261,4.0847,4.0847,0,0,1,2.3379,4.4648,3.2318,3.2318,0,0,1-1.7715,1.9844l-1.7861.9351a3.2293,3.2293,0,0,1-2.64.3261A3.55,3.55,0,0,1,98.6787,39.7871Zm1.2539-.6567a1.8149,1.8149,0,0,0,1.0977.9829,1.9143,1.9143,0,0,0,1.45-.2046l1.8711-.98a1.9152,1.9152,0,0,0,.9941-1.0762,2.0946,2.0946,0,0,0-1.2773-2.44,1.9062,1.9062,0,0,0-1.4541.1992l-1.87.98a1.9035,1.9035,0,0,0-.9921,1.0815A1.8235,1.8235,0,0,0,99.9326,39.13Zm2.082,8.2036,8.167-1.9644.37,1.54-6.7666,1.6274.8974,3.7339-1.3994.3364Zm1.6329,9.7,8.3838-.5274.0986,1.5806-6.9463.437.2412,3.8325-1.4365.0909Zm-.9707,13.4585,1.3222.4365-.3467,1.0488,5.3311,1.7637.3467-1.0478,1.3222.4365-1.0859,3.2812a3.5494,3.5494,0,0,1-1.623,2.1748,3.4055,3.4055,0,0,1-2.6983.0362l-1.5039-.4981a3.4027,3.4027,0,0,1-2.1435-1.6377,3.5472,3.5472,0,0,1-.0059-2.7138Zm.5234,3.0039-.249.7519a1.78,1.78,0,0,0,.0371,1.4913,2.0713,2.0713,0,0,0,1.2051.8662l1.5947.5273a2.065,2.065,0,0,0,1.49.0254,1.7865,1.7865,0,0,0,.9131-1.1768l.249-.7519ZM96.292,84.23a3.5538,3.5538,0,0,1,2.124-1.6113,3.2333,3.2333,0,0,1,2.5908.6064l1.6758,1.12a3.231,3.231,0,0,1,1.5488,2.1621,4.0809,4.0809,0,0,1-2.8007,4.1895,3.2328,3.2328,0,0,1-2.5909-.6055L97.1641,88.97a3.2315,3.2315,0,0,1-1.55-2.1621A3.5569,3.5569,0,0,1,96.292,84.23Zm1.1777.7871a1.8157,1.8157,0,0,0-.3388,1.4336,1.92,1.92,0,0,0,.874,1.1768l1.7558,1.1738a1.913,1.913,0,0,0,1.4209.3574,2.0942,2.0942,0,0,0,1.53-2.2891,1.9047,1.9047,0,0,0-.87-1.1806l-1.7559-1.1739a1.9015,1.9015,0,0,0-1.4238-.3535A1.82,1.82,0,0,0,97.47,85.0166Zm-7.1523,6.8369,6.0937,5.8858-1.23.98L90,93.5176l-.1689.1338,3.7168,6.3672-2.1416,1.7031L86.0371,96.67l-.1689.1348,3.9043,6.2178-1.2295.9785L84.1758,96.74l2.1416-1.7031,5.4922,5.168.1689-.1348-3.8017-6.5127ZM78.4121,99.8867l2.95,7.8643-2.82,1.0586-4.1328-6.2676-.2022.0752,2.5713,6.8535-1.4609.5479-2.95-7.8643,2.82-1.0576,4.1328,6.2676.2022-.0762-2.5713-6.8535Zm-15.1855,9.127.0088.8877-.9356.01-.8662-.1474-.0586.1572.7256.4844.666.665-.6172.6309-.6787-.6533-.499-.7149-.1558.0615.1651.8623.0092.9356-.8877.0088-.01-.9356L60.24,110.4l-.1567-.0586-.4849.7246-.665.667-.63-.6182.6533-.6777.7149-.5-.0615-.1553-.8623.1651-.9361.01-.0088-.8886.9356-.0088.8657.1465.0586-.1563-.7251-.4844-.6665-.666.6172-.63.6787.6534.5.7148.1553-.0615-.1646-.8623-.01-.9366.8881-.0087.0093.9365-.1469.8652.1562.0586.4854-.7256.665-.666.63.6172-.6533.6787-.7149.499.0615.1553.8623-.1641ZM46.001,101.34a4,4,0,0,1,1.5151.877,2.7366,2.7366,0,0,1,.7852,1.3154,2.8074,2.8074,0,0,1-.1,1.6133l-.1074.3184-1.4781-.4981.107-.3183a1.3727,1.3727,0,0,0-.0811-1.2246,1.9692,1.9692,0,0,0-1.085-.7647,1.9231,1.9231,0,0,0-1.2578-.082,1.0157,1.0157,0,0,0-.645.6572.8016.8016,0,0,0,.0073.5977,1.4341,1.4341,0,0,0,.4331.5185,7.304,7.304,0,0,0,.7871.5381l.2427.1445a7.01,7.01,0,0,1,1.249.9346,2.3227,2.3227,0,0,1,.6514,1.0361,2.1576,2.1576,0,0,1-.0859,1.2881,2.3012,2.3012,0,0,1-.7661,1.1279,2.3522,2.3522,0,0,1-1.2466.4668,3.8547,3.8547,0,0,1-1.5777-.2216,3.97,3.97,0,0,1-1.42-.8018,2.4781,2.4781,0,0,1-.7548-1.2168,2.69,2.69,0,0,1,.1035-1.5664l.1152-.3418,1.478.4981-.1147.3417a1.4285,1.4285,0,0,0-.0708.793,1.09,1.09,0,0,0,.3681.58,2.2321,2.2321,0,0,0,.74.3945,1.7,1.7,0,0,0,1.0928.083.8879.8879,0,0,0,.5595-.59.8526.8526,0,0,0,.0152-.5518,1.19,1.19,0,0,0-.3457-.4961,4.286,4.286,0,0,0-.7041-.5039l-.2422-.1445a7.82,7.82,0,0,1-1.3272-.9668,2.6052,2.6052,0,0,1-.73-1.082,2.0292,2.0292,0,0,1,.05-1.3125,2.3639,2.3639,0,0,1,.8-1.1543,2.6069,2.6069,0,0,1,1.3375-.5127A3.9987,3.9987,0,0,1,46.001,101.34Zm-9.8633-4.8046a3.4321,3.4321,0,0,1,1.5972,2.0771,3.276,3.276,0,0,1-.5938,2.584l-1.1,1.69a3.2759,3.2759,0,0,1-2.1226,1.5889,3.4292,3.4292,0,0,1-2.5463-.6192,3.2369,3.2369,0,0,1-1.545-2.0146,3.1349,3.1349,0,0,1,.5577-2.4072l.039-.0606,1.3076.8506-.0654.1006a1.8092,1.8092,0,0,0-.3208,1.2519,1.5817,1.5817,0,0,0,.7993,1.0928,1.7111,1.7111,0,0,0,1.3877.2871,1.9774,1.9774,0,0,0,1.1685-.914l1.1255-1.7305a1.9818,1.9818,0,0,0,.36-1.4336,1.7028,1.7028,0,0,0-.8218-1.1572,1.5719,1.5719,0,0,0-1.3261-.2832,1.8125,1.8125,0,0,0-1.0113.7949l-.1176.1807-1.3077-.8506.0918-.1406A3.1353,3.1353,0,0,1,33.67,95.9385,3.2308,3.2308,0,0,1,36.1377,96.5352Zm-6.4712-4.7979L23.4629,97.4l-2.46-2.6934a3.2232,3.2232,0,0,1-.7265-1.206,2.0675,2.0675,0,0,1,.62-2.2393l.1064-.0967a1.953,1.953,0,0,1,1.1465-.5595,2.1132,2.1132,0,0,1,1.104.1943l.16-.1455a.9993.9993,0,0,1-.2583-.7715,1.1983,1.1983,0,0,1,.42-.7412l2.0293-1.8535,1.0683,1.17L24.812,90.1572a.71.71,0,0,0-.2446.4268.616.616,0,0,0,.2031.4892l1.4888,1.63,2.3393-2.1357Zm-4.4707,1.9375-1.2783-1.4a1.2171,1.2171,0,0,0-.8208-.4453,1.0741,1.0741,0,0,0-.8125.3115l-.0889.0811a1.083,1.083,0,0,0-.3877.7763,1.2181,1.2181,0,0,0,.3726.8624L23.4585,95.26Zm-3.9521-13.61a3.555,3.555,0,0,1,.39,2.6376A3.23,3.23,0,0,1,19.855,84.68l-1.7891.93a3.2326,3.2326,0,0,1-2.6411.3174,3.5579,3.5579,0,0,1-1.9336-1.836,3.5521,3.5521,0,0,1-.39-2.6367A3.2333,3.2333,0,0,1,14.88,79.4756l1.789-.93A3.2319,3.2319,0,0,1,19.31,78.23,3.5491,3.5491,0,0,1,21.2437,80.0645Zm-1.2564.6523a1.8161,1.8161,0,0,0-1.0942-.9863,1.9144,1.9144,0,0,0-1.4512.1992l-1.8745.9736a1.9161,1.9161,0,0,0-.9976,1.0723,2.0953,2.0953,0,0,0,1.27,2.4443,1.904,1.904,0,0,0,1.4541-.1943l1.874-.9736a1.9027,1.9027,0,0,0,.9951-1.0782A1.82,1.82,0,0,0,19.9873,80.7168Zm-2.0454-8.1953L9.7671,74.4541l-.3643-1.542,6.773-1.6006-.8833-3.7373,1.4013-.331Zm-1.6968-9.3936-8.3989.1367L7.82,61.6807l6.959-.1133-.062-3.8394,1.44-.0234Zm1.1187-13.7837-1.32-.4419.3506-1.0468-5.3252-1.7837-.3505,1.0469-1.32-.4424,1.0977-3.2769a3.5455,3.5455,0,0,1,1.6308-2.1684,3.4026,3.4026,0,0,1,2.6983-.0264l1.5019.5029a3.4033,3.4033,0,0,1,2.1377,1.6465,3.5448,3.5448,0,0,1-.0039,2.7134Zm-.5117-3.0063.2514-.751a1.7774,1.7774,0,0,0-.0317-1.4912,2.0711,2.0711,0,0,0-1.2017-.8706l-1.5932-.5337a2.0688,2.0688,0,0,0-1.4893-.0308,1.7915,1.7915,0,0,0-.918,1.1734l-.2514.751Zm6.9379-10.69a3.5542,3.5542,0,0,1-2.13,1.6041,3.2323,3.2323,0,0,1-2.5879-.6153L17.4,35.51a3.23,3.23,0,0,1-1.542-2.1675,3.5545,3.5545,0,0,1,.686-2.5757,3.5553,3.5553,0,0,1,2.13-1.604,3.2333,3.2333,0,0,1,2.5879.6147l1.6719,1.1265a3.23,3.23,0,0,1,1.542,2.1675A3.5521,3.5521,0,0,1,23.79,35.6479Zm-1.1743-.791a1.8172,1.8172,0,0,0,.3428-1.4331,1.9162,1.9162,0,0,0-.87-1.1787l-1.7515-1.18a1.9181,1.9181,0,0,0-1.4194-.3632,2.0959,2.0959,0,0,0-1.5386,2.2841,1.9006,1.9006,0,0,0,.8662,1.1841l1.7515,1.18a1.9016,1.9016,0,0,0,1.4228.3579A1.82,1.82,0,0,0,22.6157,34.8569Zm7.187-6.8242L23.731,22.124l1.2338-.9741,5.1617,5.2207.1694-.1338L26.6035,19.856l2.1475-1.6954,5.35,5.0718.1694-.1338L30.39,16.8667l1.2339-.9741,4.3389,7.2768-2.1475,1.6953-5.4726-5.1884-.17.1338L31.95,26.3374ZM41.7261,20.05l-2.9248-7.8745L41.625,11.127l4.1118,6.2812.2027-.0752-2.5484-6.8623,1.4624-.543,2.9243,7.8745-2.8232,1.0489L40.8423,12.57l-.2027.0752,2.5489,6.8618Zm15.2446-9.0752-.0059-.8877.9361-.0063.8652.15.0586-.1563-.7231-.4873-.6646-.668.62-.6279.6763.6558.4966.7163.1557-.0611L59.2241,8.74l-.0063-.936.8882-.0058.0058.936-.15.8652.1563.0586.4873-.7231.6679-.6646.628.62-.6553.6763-.7173.4966.061.1558.8633-.1617.9356-.0063.0058.8882-.9355.0063-.8652-.15-.0591.1563.7231.4873.6651.6675-.62.6284-.6767-.6558-.4966-.7168-.1558.0611.1621.8627.0059.9361-.8877.0058-.0063-.936.15-.8647-.1562-.0591-.4873.7231-.668.6646-.6279-.62.6558-.6767.7163-.4966-.0611-.1558-.8628.1622Zm19.4,56.7991-12.9-23a1.0118,1.0118,0,0,0-1.4-.4.7808.7808,0,0,0-.4.4l-1.1,2-1.1-2a1.0118,1.0118,0,0,0-1.4-.4.7808.7808,0,0,0-.4.4l-13.1,23a.9888.9888,0,0,0,.4,1.4,1.0118,1.0118,0,0,0,1.4-.4l12.1-21.3.8,1.5-10.6,18.8a.9888.9888,0,0,0,.4,1.4.9015.9015,0,0,0,.5.1h25.8a1.11,1.11,0,0,0,1.1-1.1A.6012.6012,0,0,0,76.37,67.7737Zm-15.9-16.7,9.1,16.1H51.37Zm11.5,16.1-10.3-18.2.8-1.5,11.1,19.7Z"/></svg>