<svg xmlns="http://www.w3.org/2000/svg" width="112.6104" height="112.6104" viewBox="0 0 112.6104 112.6104"><defs><style>.a{fill:#efbe7d;}</style></defs><title>ui-ux</title><path class="a" d="M50.2574,26.153l-4.95,4.95,5.3544,5.3544L30.13,56.99a4.4482,4.4482,0,0,0,0,6.2835L52.3459,85.49a4.4482,4.4482,0,0,0,6.2832-.0007L79.1614,64.9565l1.6839-1.6838,3.2659-3.2659Zm5.23,52.5783-18.6-18.6,18.6-18.6,18.6,18.6Z"/><path class="a" d="M89.6707,80.6207a5.85,5.85,0,1,1-11.7,0c0-3.2309,5.85-10.17,5.85-10.17S89.6707,77.39,89.6707,80.6207Z"/><path class="a" d="M3.5,29.6528a3.5,3.5,0,0,1-3.5-3.5V20.5A20.5233,20.5233,0,0,1,20.5,0H32.4707a3.5,3.5,0,0,1,0,7H20.5A13.5155,13.5155,0,0,0,7,20.5v5.6528A3.5,3.5,0,0,1,3.5,29.6528Z"/><path class="a" d="M32.4707,112.61H20.5A20.5233,20.5233,0,0,1,0,92.11v-5.64a3.5,3.5,0,0,1,7,0v5.64a13.5151,13.5151,0,0,0,13.5,13.5H32.4707a3.5,3.5,0,0,1,0,7Z"/><path class="a" d="M92.11,112.61h-11.64a3.5,3.5,0,0,1,0-7H92.11a13.5148,13.5148,0,0,0,13.5-13.5V86.7881a3.5,3.5,0,0,1,7,0V92.11A20.5233,20.5233,0,0,1,92.11,112.61Z"/><path class="a" d="M109.11,29.6528a3.5,3.5,0,0,1-3.5-3.5V20.5A13.5151,13.5151,0,0,0,92.11,7h-11.64a3.5,3.5,0,0,1,0-7H92.11a20.5233,20.5233,0,0,1,20.5,20.5v5.6528A3.5,3.5,0,0,1,109.11,29.6528Z"/></svg>