<?xml version="1.0" encoding="utf-8"?>
<!-- Generator: Adobe Illustrator 24.0.1, SVG Export Plug-In . SVG Version: 6.00 Build 0)  -->
<svg version="1.1" id="Camada_1" xmlns="http://www.w3.org/2000/svg" xmlns:xlink="http://www.w3.org/1999/xlink" x="0px" y="0px"
	 viewBox="0 0 32 25" style="enable-background:new 0 0 32 25;" xml:space="preserve">
<style type="text/css">
	.st0{fill:#FFFFFF;}
</style>
<path id="Vector" class="st0" d="M31.9,23.5L19,0.5c-0.3-0.5-0.9-0.7-1.4-0.4c-0.2,0.1-0.3,0.2-0.4,0.4l-1.1,2l-1.1-2
	c-0.3-0.5-0.9-0.7-1.4-0.4c-0.2,0.1-0.3,0.2-0.4,0.4l-13.1,23C-0.2,24,0,24.7,0.5,24.9C1,25.2,1.6,25,1.9,24.5L14,3.2l0.8,1.5
	L4.2,23.5c-0.3,0.5-0.1,1.2,0.4,1.4C4.8,25,4.9,25,5.1,25h25.8c0.6,0,1.1-0.5,1.1-1.1C32,23.8,32,23.6,31.9,23.5z M16,6.8l9.1,16.1
	H6.9L16,6.8z M27.5,22.9L17.2,4.7L18,3.2l11.1,19.7C29.1,22.9,27.5,22.9,27.5,22.9z"/>
</svg>
